<mxfile host="Electron" modified="2023-05-16T00:02:24.789Z" agent="Mozilla/5.0 (X11; Linux x86_64) AppleWebKit/537.36 (KHTML, like Gecko) draw.io/21.1.2 Chrome/106.0.5249.199 Electron/21.4.3 Safari/537.36" etag="OsBl89kffQJrTHZCYNhE" version="21.1.2" type="device">
  <diagram id="C5RBs43oDa-KdzZeNtuy" name="Page-1">
    <mxGraphModel dx="899" dy="628" grid="1" gridSize="10" guides="1" tooltips="1" connect="1" arrows="1" fold="1" page="1" pageScale="1" pageWidth="827" pageHeight="1169" math="0" shadow="0">
      <root>
        <mxCell id="WIyWlLk6GJQsqaUBKTNV-0" />
        <mxCell id="WIyWlLk6GJQsqaUBKTNV-1" parent="WIyWlLk6GJQsqaUBKTNV-0" />
        <mxCell id="8srKoXLkhrAYEcqLLTP9-0" value="Meus OrÃ§amentos" style="swimlane;whiteSpace=wrap;html=1;" vertex="1" parent="WIyWlLk6GJQsqaUBKTNV-1">
          <mxGeometry x="37" width="790" height="1170" as="geometry" />
        </mxCell>
        <mxCell id="8srKoXLkhrAYEcqLLTP9-13" style="edgeStyle=orthogonalEdgeStyle;rounded=0;orthogonalLoop=1;jettySize=auto;html=1;entryX=0.5;entryY=0;entryDx=0;entryDy=0;" edge="1" parent="8srKoXLkhrAYEcqLLTP9-0" source="8srKoXLkhrAYEcqLLTP9-1" target="8srKoXLkhrAYEcqLLTP9-11">
          <mxGeometry relative="1" as="geometry" />
        </mxCell>
        <mxCell id="8srKoXLkhrAYEcqLLTP9-1" value="LISTA BASICA" style="shape=cube;whiteSpace=wrap;html=1;boundedLbl=1;backgroundOutline=1;darkOpacity=0.05;darkOpacity2=0.1;" vertex="1" parent="8srKoXLkhrAYEcqLLTP9-0">
          <mxGeometry x="366" y="40" width="120" height="80" as="geometry" />
        </mxCell>
        <mxCell id="8srKoXLkhrAYEcqLLTP9-5" style="edgeStyle=orthogonalEdgeStyle;rounded=0;orthogonalLoop=1;jettySize=auto;html=1;entryX=0;entryY=0;entryDx=50;entryDy=0;entryPerimeter=0;" edge="1" parent="8srKoXLkhrAYEcqLLTP9-0" source="8srKoXLkhrAYEcqLLTP9-2" target="8srKoXLkhrAYEcqLLTP9-3">
          <mxGeometry relative="1" as="geometry" />
        </mxCell>
        <mxCell id="8srKoXLkhrAYEcqLLTP9-2" value="Vender" style="shape=process;whiteSpace=wrap;html=1;backgroundOutline=1;" vertex="1" parent="8srKoXLkhrAYEcqLLTP9-0">
          <mxGeometry x="30" y="430" width="120" height="60" as="geometry" />
        </mxCell>
        <mxCell id="8srKoXLkhrAYEcqLLTP9-9" style="edgeStyle=orthogonalEdgeStyle;rounded=0;orthogonalLoop=1;jettySize=auto;html=1;entryX=0.5;entryY=0;entryDx=0;entryDy=0;" edge="1" parent="8srKoXLkhrAYEcqLLTP9-0" source="8srKoXLkhrAYEcqLLTP9-3" target="8srKoXLkhrAYEcqLLTP9-7">
          <mxGeometry relative="1" as="geometry" />
        </mxCell>
        <mxCell id="8srKoXLkhrAYEcqLLTP9-3" value="LISTA DE VENDIDOS" style="shape=cube;whiteSpace=wrap;html=1;boundedLbl=1;backgroundOutline=1;darkOpacity=0.05;darkOpacity2=0.1;" vertex="1" parent="8srKoXLkhrAYEcqLLTP9-0">
          <mxGeometry x="40" y="570" width="120" height="80" as="geometry" />
        </mxCell>
        <mxCell id="8srKoXLkhrAYEcqLLTP9-10" style="edgeStyle=orthogonalEdgeStyle;rounded=0;orthogonalLoop=1;jettySize=auto;html=1;entryX=0.42;entryY=-0.01;entryDx=0;entryDy=0;entryPerimeter=0;" edge="1" parent="8srKoXLkhrAYEcqLLTP9-0" source="8srKoXLkhrAYEcqLLTP9-7" target="8srKoXLkhrAYEcqLLTP9-8">
          <mxGeometry relative="1" as="geometry" />
        </mxCell>
        <mxCell id="8srKoXLkhrAYEcqLLTP9-7" value="SABER VALOR TOTAL DE VENDAS" style="shape=process;whiteSpace=wrap;html=1;backgroundOutline=1;" vertex="1" parent="8srKoXLkhrAYEcqLLTP9-0">
          <mxGeometry x="40" y="780" width="120" height="60" as="geometry" />
        </mxCell>
        <mxCell id="8srKoXLkhrAYEcqLLTP9-8" value="HTML DE FATURAMENTO" style="shape=note;whiteSpace=wrap;html=1;backgroundOutline=1;darkOpacity=0.05;" vertex="1" parent="8srKoXLkhrAYEcqLLTP9-0">
          <mxGeometry x="60" y="930" width="100" height="100" as="geometry" />
        </mxCell>
        <mxCell id="8srKoXLkhrAYEcqLLTP9-16" style="edgeStyle=orthogonalEdgeStyle;rounded=0;orthogonalLoop=1;jettySize=auto;html=1;entryX=0.498;entryY=0.003;entryDx=0;entryDy=0;entryPerimeter=0;" edge="1" parent="8srKoXLkhrAYEcqLLTP9-0" source="8srKoXLkhrAYEcqLLTP9-11" target="8srKoXLkhrAYEcqLLTP9-14">
          <mxGeometry relative="1" as="geometry" />
        </mxCell>
        <mxCell id="8srKoXLkhrAYEcqLLTP9-25" style="edgeStyle=orthogonalEdgeStyle;rounded=0;orthogonalLoop=1;jettySize=auto;html=1;" edge="1" parent="8srKoXLkhrAYEcqLLTP9-0" source="8srKoXLkhrAYEcqLLTP9-11" target="8srKoXLkhrAYEcqLLTP9-23">
          <mxGeometry relative="1" as="geometry" />
        </mxCell>
        <mxCell id="8srKoXLkhrAYEcqLLTP9-11" value="REMOVER ORCAMENTO" style="shape=process;whiteSpace=wrap;html=1;backgroundOutline=1;" vertex="1" parent="8srKoXLkhrAYEcqLLTP9-0">
          <mxGeometry x="366" y="170" width="120" height="60" as="geometry" />
        </mxCell>
        <mxCell id="8srKoXLkhrAYEcqLLTP9-15" style="edgeStyle=orthogonalEdgeStyle;rounded=0;orthogonalLoop=1;jettySize=auto;html=1;entryX=0.5;entryY=0;entryDx=0;entryDy=0;" edge="1" parent="8srKoXLkhrAYEcqLLTP9-0" source="8srKoXLkhrAYEcqLLTP9-14" target="8srKoXLkhrAYEcqLLTP9-2">
          <mxGeometry relative="1" as="geometry" />
        </mxCell>
        <mxCell id="8srKoXLkhrAYEcqLLTP9-19" value="" style="edgeStyle=orthogonalEdgeStyle;rounded=0;orthogonalLoop=1;jettySize=auto;html=1;" edge="1" parent="8srKoXLkhrAYEcqLLTP9-0" source="8srKoXLkhrAYEcqLLTP9-14" target="8srKoXLkhrAYEcqLLTP9-17">
          <mxGeometry relative="1" as="geometry" />
        </mxCell>
        <mxCell id="8srKoXLkhrAYEcqLLTP9-14" value="LISTA BASICA" style="shape=cube;whiteSpace=wrap;html=1;boundedLbl=1;backgroundOutline=1;darkOpacity=0.05;darkOpacity2=0.1;" vertex="1" parent="8srKoXLkhrAYEcqLLTP9-0">
          <mxGeometry x="233" y="350" width="120" height="80" as="geometry" />
        </mxCell>
        <mxCell id="8srKoXLkhrAYEcqLLTP9-20" style="edgeStyle=orthogonalEdgeStyle;rounded=0;orthogonalLoop=1;jettySize=auto;html=1;entryX=0.519;entryY=-0.012;entryDx=0;entryDy=0;entryPerimeter=0;" edge="1" parent="8srKoXLkhrAYEcqLLTP9-0" source="8srKoXLkhrAYEcqLLTP9-17" target="8srKoXLkhrAYEcqLLTP9-18">
          <mxGeometry relative="1" as="geometry" />
        </mxCell>
        <mxCell id="8srKoXLkhrAYEcqLLTP9-22" style="edgeStyle=orthogonalEdgeStyle;rounded=0;orthogonalLoop=1;jettySize=auto;html=1;entryX=0.816;entryY=1.033;entryDx=0;entryDy=0;entryPerimeter=0;" edge="1" parent="8srKoXLkhrAYEcqLLTP9-0" source="8srKoXLkhrAYEcqLLTP9-17" target="8srKoXLkhrAYEcqLLTP9-11">
          <mxGeometry relative="1" as="geometry">
            <Array as="points">
              <mxPoint x="450" y="490" />
              <mxPoint x="450" y="410" />
              <mxPoint x="464" y="410" />
            </Array>
          </mxGeometry>
        </mxCell>
        <mxCell id="8srKoXLkhrAYEcqLLTP9-17" value="MARCAR &lt;br&gt;CONTATO" style="shape=process;whiteSpace=wrap;html=1;backgroundOutline=1;" vertex="1" parent="8srKoXLkhrAYEcqLLTP9-0">
          <mxGeometry x="240" y="460" width="170" height="60" as="geometry" />
        </mxCell>
        <mxCell id="8srKoXLkhrAYEcqLLTP9-21" style="edgeStyle=orthogonalEdgeStyle;rounded=0;orthogonalLoop=1;jettySize=auto;html=1;entryX=1;entryY=0.5;entryDx=0;entryDy=0;" edge="1" parent="8srKoXLkhrAYEcqLLTP9-0" source="8srKoXLkhrAYEcqLLTP9-18" target="8srKoXLkhrAYEcqLLTP9-2">
          <mxGeometry relative="1" as="geometry" />
        </mxCell>
        <mxCell id="8srKoXLkhrAYEcqLLTP9-18" value="LISTA DE CONTATOS FEITOS" style="shape=cube;whiteSpace=wrap;html=1;boundedLbl=1;backgroundOutline=1;darkOpacity=0.05;darkOpacity2=0.1;" vertex="1" parent="8srKoXLkhrAYEcqLLTP9-0">
          <mxGeometry x="264" y="620" width="120" height="80" as="geometry" />
        </mxCell>
        <mxCell id="8srKoXLkhrAYEcqLLTP9-28" value="" style="edgeStyle=orthogonalEdgeStyle;rounded=0;orthogonalLoop=1;jettySize=auto;html=1;" edge="1" parent="8srKoXLkhrAYEcqLLTP9-0" source="8srKoXLkhrAYEcqLLTP9-23" target="8srKoXLkhrAYEcqLLTP9-27">
          <mxGeometry relative="1" as="geometry" />
        </mxCell>
        <mxCell id="8srKoXLkhrAYEcqLLTP9-23" value="LISTA DE REMOVIDOS" style="shape=cube;whiteSpace=wrap;html=1;boundedLbl=1;backgroundOutline=1;darkOpacity=0.05;darkOpacity2=0.1;" vertex="1" parent="8srKoXLkhrAYEcqLLTP9-0">
          <mxGeometry x="580" y="240" width="120" height="80" as="geometry" />
        </mxCell>
        <mxCell id="8srKoXLkhrAYEcqLLTP9-26" value="aqui a pessoa nao quer mais" style="shape=callout;whiteSpace=wrap;html=1;perimeter=calloutPerimeter;" vertex="1" parent="8srKoXLkhrAYEcqLLTP9-0">
          <mxGeometry x="403" y="310" width="120" height="80" as="geometry" />
        </mxCell>
        <mxCell id="8srKoXLkhrAYEcqLLTP9-30" style="edgeStyle=orthogonalEdgeStyle;rounded=0;orthogonalLoop=1;jettySize=auto;html=1;" edge="1" parent="8srKoXLkhrAYEcqLLTP9-0" source="8srKoXLkhrAYEcqLLTP9-27" target="8srKoXLkhrAYEcqLLTP9-14">
          <mxGeometry relative="1" as="geometry">
            <Array as="points">
              <mxPoint x="433" y="420" />
              <mxPoint x="433" y="390" />
            </Array>
          </mxGeometry>
        </mxCell>
        <mxCell id="8srKoXLkhrAYEcqLLTP9-27" value="RECUPERAR CLIENTE/" style="shape=process;whiteSpace=wrap;html=1;backgroundOutline=1;" vertex="1" parent="8srKoXLkhrAYEcqLLTP9-0">
          <mxGeometry x="583" y="390" width="120" height="60" as="geometry" />
        </mxCell>
      </root>
    </mxGraphModel>
  </diagram>
</mxfile>
